# xmcd
#
# Track frame offsets:
#	150
#	12332
#	25664
#	38786
#	51386
#	65505
#	77575
#	88395
#	101054
#	114969
#	128996
#	143824
#
# Disc length: 2063 seconds
# Revision: 0
# Processed by: cddbd v1.5.2PL0 Copyright (c) Steve Scherf et al.
# Submitted via: dBpowerAMP V12.0
#
DISCID=9f080d0c
DTITLE=Bobby G. Rice - Down In Texas
DYEAR=2012
DGENRE=Country
TTITLE0=Down in Texas
TTITLE1=You Lay So Easy On My Mind
TTITLE2=That's Saying a Lot
TTITLE3=Pick Me Up On Your Way Down
TTITLE4=You Give Me You
TTITLE5=Mountain Of Love
TTITLE6=Let's Just Do That
TTITLE7=I Think We're On To Something Good (With Dottsy)
TTITLE8=The Whole Worlds Makin' Love Again Tonight
TTITLE9=Too Bad I've Got A Good Memory
TTITLE10=It's Just A Feeling That I Get
TTITLE11=Far Cry from Being Over You
EXTD=
EXTT0=
EXTT1=
EXTT2=
EXTT3=
EXTT4=
EXTT5=
EXTT6=
EXTT7=
EXTT8=
EXTT9=
EXTT10=
EXTT11=
PLAYORDER=
